<?xml version="1.0" encoding="UTF-8"?>
<!DOCTYPE svg PUBLIC "-//W3C//DTD SVG 1.1//EN" "http://www.w3.org/Graphics/SVG/1.1/DTD/svg11.dtd">
<svg xmlns="http://www.w3.org/2000/svg" version="1.1" width="192px" height="192px" style="shape-rendering:geometricPrecision; text-rendering:geometricPrecision; image-rendering:optimizeQuality; fill-rule:evenodd; clip-rule:evenodd" xmlns:xlink="http://www.w3.org/1999/xlink">
<g><path style="opacity:0.812" fill="#3a38bc" d="M 70.5,3.5 C 86.8333,3.5 103.167,3.5 119.5,3.5C 119.333,19.5035 119.5,35.5035 120,51.5C 134.333,43.1667 148.667,34.8333 163,26.5C 171.247,41.3303 179.747,55.997 188.5,70.5C 174.667,78.5823 161,86.9156 147.5,95.5C 161.167,103.5 174.833,111.5 188.5,119.5C 179.833,134.167 171.167,148.833 162.5,163.5C 148.584,155.292 134.75,146.959 121,138.5C 120.5,154.83 120.333,171.163 120.5,187.5C 103.833,187.5 87.1667,187.5 70.5,187.5C 70.6666,171.163 70.4999,154.83 70,138.5C 56.2497,146.959 42.4163,155.292 28.5,163.5C 19.7072,148.749 11.0405,133.915 2.5,119C 16.2955,111.367 29.9622,103.533 43.5,95.5C 30.1643,86.83 16.4976,78.6633 2.5,71C 11.0405,56.0846 19.7072,41.2513 28.5,26.5C 42.4163,34.7076 56.2497,43.0409 70,51.5C 70.4999,35.5035 70.6666,19.5035 70.5,3.5 Z"/></g>
<g><path style="opacity:1" fill="#0301bb" d="M 118.5,57.5 C 132.473,49.5118 146.473,41.5118 160.5,33.5C 168.24,44.6337 175.24,56.3003 181.5,68.5C 181.023,69.4776 180.357,70.3109 179.5,71C 165.502,78.6633 151.836,86.83 138.5,95.5C 153.035,103.93 167.369,112.596 181.5,121.5C 175.24,133.7 168.24,145.366 160.5,156.5C 148.472,149.488 136.472,142.488 124.5,135.5C 122.184,134.194 119.85,132.861 117.5,131.5C 116.5,148.821 116.167,166.154 116.5,183.5C 102.5,183.5 88.5,183.5 74.5,183.5C 74.8328,166.154 74.4995,148.821 73.5,131.5C 72.2613,131.942 71.2613,132.609 70.5,133.5C 57.2215,141.143 43.8882,148.81 30.5,156.5C 22.76,145.366 15.76,133.7 9.5,121.5C 23.6313,112.596 37.9647,103.93 52.5,95.5C 37.962,86.7362 23.6287,77.7362 9.5,68.5C 15.76,56.3003 22.76,44.6337 30.5,33.5C 44.3585,41.2593 58.0251,49.2593 71.5,57.5C 72.1499,57.8039 72.8165,58.1373 73.5,58.5C 74.4995,41.5131 74.8328,24.5131 74.5,7.5C 88.1667,7.5 101.833,7.5 115.5,7.5C 115.167,24.5131 115.501,41.5131 116.5,58.5C 117.183,58.1373 117.85,57.8039 118.5,57.5 Z"/></g>
<g><path style="opacity:1" fill="#fefefe" d="M 117.5,55.5 C 117.833,56.1667 118.167,56.8333 118.5,57.5C 117.85,57.8039 117.183,58.1373 116.5,58.5C 115.501,41.5131 115.167,24.5131 115.5,7.5C 101.833,7.5 88.1667,7.5 74.5,7.5C 74.8328,24.5131 74.4995,41.5131 73.5,58.5C 72.8165,58.1373 72.1499,57.8039 71.5,57.5C 71.8333,56.8333 72.1667,56.1667 72.5,55.5C 72.5,38.8333 72.5,22.1667 72.5,5.5C 87.5,5.5 102.5,5.5 117.5,5.5C 117.5,22.1667 117.5,38.8333 117.5,55.5 Z"/></g>
<g><path style="opacity:1" fill="#e4e3f7" d="M 123.5,136.5 C 124.167,136.5 124.5,136.167 124.5,135.5C 136.472,142.488 148.472,149.488 160.5,156.5C 168.24,145.366 175.24,133.7 181.5,121.5C 167.369,112.596 153.035,103.93 138.5,95.5C 151.836,86.83 165.502,78.6633 179.5,71C 180.357,70.3109 181.023,69.4776 181.5,68.5C 175.24,56.3003 168.24,44.6337 160.5,33.5C 146.473,41.5118 132.473,49.5118 118.5,57.5C 118.167,56.8333 117.833,56.1667 117.5,55.5C 132.139,47.1786 146.806,38.8452 161.5,30.5C 169.419,43.3353 177.085,56.3353 184.5,69.5C 170.536,78.1525 156.536,86.8192 142.5,95.5C 156.5,103.833 170.5,112.167 184.5,120.5C 177.085,133.665 169.419,146.665 161.5,159.5C 148.437,152.31 135.771,144.644 123.5,136.5 Z"/></g>
<g><path style="opacity:1" fill="#3d39be" d="M 92.5,20.5 C 96.4257,20.0466 99.5923,21.3799 102,24.5C 101.525,39.4847 101.525,54.4847 102,69.5C 114.824,81.3404 114.491,92.6737 101,103.5C 100.333,106.167 100.333,108.833 101,111.5C 106.677,117.201 108.011,123.868 105,131.5C 103.71,133.792 102.043,135.792 100,137.5C 99.3333,142.167 99.3333,146.833 100,151.5C 103.379,154.785 104.379,158.785 103,163.5C 100.936,166.726 98.4357,169.393 95.5,171.5C 93.5749,171.41 92.4083,170.41 92,168.5C 92.6848,161.104 91.0181,154.437 87,148.5C 84.548,142.548 85.548,137.215 90,132.5C 90.6667,127.5 90.6667,122.5 90,117.5C 82.2112,110.656 81.8778,103.656 89,96.5C 89.6667,90.1667 89.6667,83.8333 89,77.5C 77.9991,67.8284 74.9991,56.1617 80,42.5C 82.1233,39.7015 84.7899,37.7015 88,36.5C 88.3333,32.5 88.6667,28.5 89,24.5C 90.3756,23.2949 91.5423,21.9616 92.5,20.5 Z"/></g>
<g><path style="opacity:1" fill="#f9f9fd" d="M 98.5,46.5 C 99.4881,51.6405 99.8214,56.9738 99.5,62.5C 99.6664,70.84 99.4997,79.1733 99,87.5C 96.7094,89.8248 94.3761,92.1581 92,94.5C 91.5001,79.1703 91.3334,63.837 91.5,48.5C 94.0786,48.6061 96.412,47.9395 98.5,46.5 Z"/></g>
<g><path style="opacity:1" fill="#f7f6fc" d="M 87.5,38.5 C 90.5184,38.3354 93.5184,38.502 96.5,39C 98.6015,40.7328 98.9348,42.7328 97.5,45C 92.9496,46.0682 88.7829,47.9015 85,50.5C 83.8857,55.0411 84.8857,59.0411 88,62.5C 89.6062,76.2336 87.2729,76.5669 81,63.5C 78.6821,56.319 79.0154,49.319 82,42.5C 83.8121,41.0229 85.6455,39.6896 87.5,38.5 Z"/></g>
<g><path style="opacity:1" fill="#4947c1" d="M 92.5,41.5 C 93.6009,40.4017 94.9343,40.235 96.5,41C 95.3181,42.7683 93.9848,42.9349 92.5,41.5 Z"/></g>
<g><path style="opacity:1" fill="#f5f4fb" d="M 92.5,22.5 C 95.2724,22.22 97.7724,22.8866 100,24.5C 100.667,29.8333 100.667,35.1667 100,40.5C 97.8504,37.037 94.6838,35.7036 90.5,36.5C 89.962,31.5329 90.6287,26.8662 92.5,22.5 Z"/></g>
<g><path style="opacity:1" fill="#7f7ed4" d="M 99.5,62.5 C 99.8214,56.9738 99.4881,51.6405 98.5,46.5C 98.7828,45.7109 99.2828,45.0442 100,44.5C 100.819,50.6812 100.653,56.6812 99.5,62.5 Z"/></g>
<g><path style="opacity:1" fill="#f6f6fc" d="M 102.5,73.5 C 111.808,82.2559 111.808,91.0892 102.5,100C 96.2897,102.843 91.7897,107.343 89,113.5C 85.9831,110.414 84.9831,106.748 86,102.5C 90.3933,97.9528 95.06,93.6195 100,89.5C 102.177,84.4053 103.01,79.072 102.5,73.5 Z"/></g>
<g><path style="opacity:1" fill="#e5e4f7" d="M 72.5,55.5 C 72.1667,56.1667 71.8333,56.8333 71.5,57.5C 58.0251,49.2593 44.3585,41.2593 30.5,33.5C 22.76,44.6337 15.76,56.3003 9.5,68.5C 23.6287,77.7362 37.962,86.7362 52.5,95.5C 37.9647,103.93 23.6313,112.596 9.5,121.5C 15.76,133.7 22.76,145.366 30.5,156.5C 43.8882,148.81 57.2215,141.143 70.5,133.5C 70.5,134.167 70.8333,134.5 71.5,134.5C 57.8938,143.311 43.8938,151.644 29.5,159.5C 21.5813,146.665 13.9146,133.665 6.5,120.5C 20.5,112.167 34.5,103.833 48.5,95.5C 34.464,86.8192 20.464,78.1525 6.5,69.5C 13.9294,56.2997 21.5961,43.2997 29.5,30.5C 44.0247,38.5925 58.358,46.9259 72.5,55.5 Z"/></g>
<g><path style="opacity:1" fill="#f7f7fc" d="M 96.5,105.5 C 97.8182,108.258 98.4848,111.424 98.5,115C 99.7481,121.352 97.9148,126.519 93,130.5C 92.3333,123.833 92.3333,117.167 93,110.5C 93.9973,108.677 95.1639,107.01 96.5,105.5 Z"/></g>
<g><path style="opacity:1" fill="#f3f2fb" d="M 101.5,115.5 C 106.776,126.333 103.943,134.666 93,140.5C 91.2503,143.246 90.2503,146.246 90,149.5C 86.6781,144.872 86.6781,140.205 90,135.5C 97.711,131.08 101.544,124.413 101.5,115.5 Z"/></g>
<g><path style="opacity:1" fill="#fdfdfe" d="M 124.5,135.5 C 124.5,136.167 124.167,136.5 123.5,136.5C 121.83,136.249 120.33,135.582 119,134.5C 118.5,151.497 118.333,168.497 118.5,185.5C 103.167,185.5 87.8333,185.5 72.5,185.5C 72.8299,168.325 72.4966,151.325 71.5,134.5C 70.8333,134.5 70.5,134.167 70.5,133.5C 71.2613,132.609 72.2613,131.942 73.5,131.5C 74.4995,148.821 74.8328,166.154 74.5,183.5C 88.5,183.5 102.5,183.5 116.5,183.5C 116.167,166.154 116.5,148.821 117.5,131.5C 119.85,132.861 122.184,134.194 124.5,135.5 Z"/></g>
<g><path style="opacity:1" fill="#fbfbfd" d="M 95.5,140.5 C 96.8222,143.768 97.4888,147.435 97.5,151.5C 97.6243,157.928 96.9576,163.928 95.5,169.5C 94.914,169.291 94.414,168.957 94,168.5C 93.3333,159.833 93.3333,151.167 94,142.5C 94.7172,141.956 95.2172,141.289 95.5,140.5 Z"/></g>
<g><path style="opacity:1" fill="#dfdef4" d="M 100.5,155.5 C 103.231,159.063 102.731,162.397 99,165.5C 99.365,162.206 99.865,158.873 100.5,155.5 Z"/></g>
</svg>
